<svg width="24" xmlns="http://www.w3.org/2000/svg" height="24" id="screenshot-9b0e4fd9-f164-8031-8007-affb70ca778d" viewBox="0 0 24 24" xmlns:xlink="http://www.w3.org/1999/xlink" fill="none" version="1.1"><g id="shape-9b0e4fd9-f164-8031-8007-affb70ca778d" width="800" height="800" rx="0" ry="0" style="fill: rgb(0, 0, 0);"><g id="shape-9b0e4fd9-f164-8031-8007-affb70cb5918" style="display: none;"><g class="fills" id="fills-9b0e4fd9-f164-8031-8007-affb70cb5918"><rect width="24" height="24" x="0" transform="matrix(1.000000, 0.000000, 0.000000, 1.000000, 0.000000, 0.000000)" style="fill: none;" ry="0" fill="none" rx="0" y="0"/></g></g><g id="shape-9b0e4fd9-f164-8031-8007-affb70cbbfd7"><g class="fills" id="fills-9b0e4fd9-f164-8031-8007-affb70cbbfd7"><path d="M9.001953125,17L5.6064453125,17C4.347900390625,17,3.71875,17,3.58642578125,16.902313232421875C3.4375,16.792510986328125,3.4013671875,16.727691650390625,3.38525390625,16.543609619140625C3.370849609375,16.37969970703125,3.75634765625,15.74859619140625,4.52783203125,14.486602783203125C5.32421875,13.183502197265625,6.000244140625,11.28619384765625,6.000244140625,8.600006103515625C6.000244140625,7.114776611328125,6.632568359375,5.690399169921875,7.757568359375,4.64019775390625C8.8828125,3.589996337890625,10.408935546875,3,12.000244140625,3C13.591552734375,3,15.11767578125,3.589996337890625,16.242919921875,4.64019775390625C17.3681640625,5.690399169921875,18.000244140625,7.114776611328125,18.000244140625,8.600006103515625C18.000244140625,11.28619384765625,18.676513671875,13.183502197265625,19.472900390625,14.486602783203125C20.244140625,15.74859619140625,20.6298828125,16.37969970703125,20.615478515625,16.543609619140625C20.599365234375,16.727691650390625,20.56298828125,16.792510986328125,20.414306640625,16.902313232421875C20.281982421875,17,19.652587890625,17,18.394287109375,17L15.000244140625,17M9.001953125,17L9.000244140625,18C9.000244140625,19.656890869140625,10.343505859375,21,12.000244140625,21C13.6572265625,21,15.000244140625,19.656890869140625,15.000244140625,18L15.000244140625,17M9.001953125,17L15.000244140625,17" fill="none" stroke-linecap="round" stroke-linejoin="round" style="fill: none;"/></g><g fill="none" stroke-linecap="round" stroke-linejoin="round" id="strokes-943ed748-ea49-8006-8007-affb815c5055-9b0e4fd9-f164-8031-8007-affb70cbbfd7" class="strokes"><g class="stroke-shape"><path d="M9.001953125,17L5.6064453125,17C4.347900390625,17,3.71875,17,3.58642578125,16.902313232421875C3.4375,16.792510986328125,3.4013671875,16.727691650390625,3.38525390625,16.543609619140625C3.370849609375,16.37969970703125,3.75634765625,15.74859619140625,4.52783203125,14.486602783203125C5.32421875,13.183502197265625,6.000244140625,11.28619384765625,6.000244140625,8.600006103515625C6.000244140625,7.114776611328125,6.632568359375,5.690399169921875,7.757568359375,4.64019775390625C8.8828125,3.589996337890625,10.408935546875,3,12.000244140625,3C13.591552734375,3,15.11767578125,3.589996337890625,16.242919921875,4.64019775390625C17.3681640625,5.690399169921875,18.000244140625,7.114776611328125,18.000244140625,8.600006103515625C18.000244140625,11.28619384765625,18.676513671875,13.183502197265625,19.472900390625,14.486602783203125C20.244140625,15.74859619140625,20.6298828125,16.37969970703125,20.615478515625,16.543609619140625C20.599365234375,16.727691650390625,20.56298828125,16.792510986328125,20.414306640625,16.902313232421875C20.281982421875,17,19.652587890625,17,18.394287109375,17L15.000244140625,17M9.001953125,17L9.000244140625,18C9.000244140625,19.656890869140625,10.343505859375,21,12.000244140625,21C13.6572265625,21,15.000244140625,19.656890869140625,15.000244140625,18L15.000244140625,17M9.001953125,17L15.000244140625,17" style="fill: none; stroke-width: 2; stroke: rgb(222, 222, 222); stroke-opacity: 1;"/></g></g></g></g></svg>