<svg width="24" xmlns="http://www.w3.org/2000/svg" height="24" id="screenshot-ddb16823-1b02-8025-8007-6f896bced7a5" viewBox="0 0 24 24" xmlns:xlink="http://www.w3.org/1999/xlink" fill="none" version="1.1"><g id="shape-ddb16823-1b02-8025-8007-6f896bced7a5" width="800" height="800" rx="0" ry="0" style="fill: rgb(0, 0, 0);"><g id="shape-ddb16823-1b02-8025-8007-6f896bcfc958" style="display: none;"><g class="fills" id="fills-ddb16823-1b02-8025-8007-6f896bcfc958"><rect width="24" height="24" x="0" transform="matrix(1.000000, 0.000000, 0.000000, 1.000000, 0.000000, 0.000000)" style="fill: none;" ry="0" fill="none" rx="0" y="0"/></g></g><g id="shape-ddb16823-1b02-8025-8007-6f896bd03615"><g class="fills" id="fills-ddb16823-1b02-8025-8007-6f896bd03615"><path d="M4,6L20,6L18.419921875,20.220947265625C18.3076171875,21.233642578125,17.451171875,22,16.43212890625,22L7.56787109375,22C6.548828125,22,5.69287109375,21.233642578125,5.580078125,20.220947265625L4,6Z" fill="none" stroke-linecap="round" stroke-linejoin="round" style="fill: none;"/></g><g fill="none" stroke-linecap="round" stroke-linejoin="round" id="strokes-e9a0730a-86cd-8056-8007-7889a2dcefd0-ddb16823-1b02-8025-8007-6f896bd03615" class="strokes"><g class="inner-stroke-shape"><defs><clipPath id="inner-stroke-render-3-ddb16823-1b02-8025-8007-6f896bd03615-0"><use href="#stroke-shape-render-3-ddb16823-1b02-8025-8007-6f896bd03615-0"/></clipPath><path d="M4,6L20,6L18.419921875,20.220947265625C18.3076171875,21.233642578125,17.451171875,22,16.43212890625,22L7.56787109375,22C6.548828125,22,5.69287109375,21.233642578125,5.580078125,20.220947265625L4,6Z" id="stroke-shape-render-3-ddb16823-1b02-8025-8007-6f896bd03615-0" style="fill: none; stroke-width: 4; stroke: rgb(222, 222, 222); stroke-opacity: 1;"/></defs><use href="#stroke-shape-render-3-ddb16823-1b02-8025-8007-6f896bd03615-0" clip-path="url('#inner-stroke-render-3-ddb16823-1b02-8025-8007-6f896bd03615-0')"/></g></g></g><g id="shape-ddb16823-1b02-8025-8007-6f896bd03616"><g class="fills" id="fills-ddb16823-1b02-8025-8007-6f896bd03616"><path d="M7.3447265625,3.147216796875C7.67529296875,2.4468994140625,8.3798828125,2,9.15380859375,2L14.84619140625,2C15.6201171875,2,16.32470703125,2.4468994140625,16.6552734375,3.147216796875L18,6L6,6L7.3447265625,3.147216796875Z" fill="none" stroke-linecap="round" stroke-linejoin="round" style="fill: none;"/></g><g fill="none" stroke-linecap="round" stroke-linejoin="round" id="strokes-e9a0730a-86cd-8056-8007-7889a2ddf1ca-ddb16823-1b02-8025-8007-6f896bd03616" class="strokes"><g class="inner-stroke-shape"><defs><clipPath id="inner-stroke-render-4-ddb16823-1b02-8025-8007-6f896bd03616-0"><use href="#stroke-shape-render-4-ddb16823-1b02-8025-8007-6f896bd03616-0"/></clipPath><path d="M7.3447265625,3.147216796875C7.67529296875,2.4468994140625,8.3798828125,2,9.15380859375,2L14.84619140625,2C15.6201171875,2,16.32470703125,2.4468994140625,16.6552734375,3.147216796875L18,6L6,6L7.3447265625,3.147216796875Z" id="stroke-shape-render-4-ddb16823-1b02-8025-8007-6f896bd03616-0" style="fill: none; stroke-width: 4; stroke: rgb(222, 222, 222); stroke-opacity: 1;"/></defs><use href="#stroke-shape-render-4-ddb16823-1b02-8025-8007-6f896bd03616-0" clip-path="url('#inner-stroke-render-4-ddb16823-1b02-8025-8007-6f896bd03616-0')"/></g></g></g><g id="shape-ddb16823-1b02-8025-8007-6f896bd0b614"><g class="fills" id="fills-ddb16823-1b02-8025-8007-6f896bd0b614"><path d="M2,6L22,6" fill="none" stroke-linecap="round" stroke-linejoin="round" style="fill: none;"/></g><g fill="none" stroke-linecap="round" stroke-linejoin="round" id="strokes-e9a0730a-86cd-8056-8007-7889a2de6206-ddb16823-1b02-8025-8007-6f896bd0b614" class="strokes"><g class="stroke-shape"><path d="M2,6L22,6" style="fill: none; stroke-width: 2; stroke: rgb(222, 222, 222); stroke-opacity: 1;"/></g></g></g><g id="shape-ddb16823-1b02-8025-8007-6f896bd0b615"><g class="fills" id="fills-ddb16823-1b02-8025-8007-6f896bd0b615"><path d="M10,11L10,16" fill="none" stroke-linecap="round" stroke-linejoin="round" style="fill: none;"/></g><g fill="none" stroke-linecap="round" stroke-linejoin="round" id="strokes-e9a0730a-86cd-8056-8007-7889a2deb8d7-ddb16823-1b02-8025-8007-6f896bd0b615" class="strokes"><g class="stroke-shape"><path d="M10,11L10,16" style="fill: none; stroke-width: 2; stroke: rgb(222, 222, 222); stroke-opacity: 1;"/></g></g></g><g id="shape-ddb16823-1b02-8025-8007-6f896bd0b616"><g class="fills" id="fills-ddb16823-1b02-8025-8007-6f896bd0b616"><path d="M14,11L14,16" fill="none" stroke-linecap="round" stroke-linejoin="round" style="fill: none;"/></g><g fill="none" stroke-linecap="round" stroke-linejoin="round" id="strokes-e9a0730a-86cd-8056-8007-7889a2deecb6-ddb16823-1b02-8025-8007-6f896bd0b616" class="strokes"><g class="stroke-shape"><path d="M14,11L14,16" style="fill: none; stroke-width: 2; stroke: rgb(222, 222, 222); stroke-opacity: 1;"/></g></g></g></g></svg>