<svg width="24" xmlns="http://www.w3.org/2000/svg" height="24" id="screenshot-ddb16823-1b02-8025-8007-6f89a1ebb3fe" viewBox="0 0 24 24" xmlns:xlink="http://www.w3.org/1999/xlink" fill="none" version="1.1"><g id="shape-ddb16823-1b02-8025-8007-6f89a1ebb3fe" width="800" height="800" rx="0" ry="0" style="fill: rgb(0, 0, 0);"><g id="shape-ddb16823-1b02-8025-8007-6f89a1ec0ecb" style="display: none;"><g class="fills" id="fills-ddb16823-1b02-8025-8007-6f89a1ec0ecb"><rect width="24" height="24" x="0" transform="matrix(1.000000, 0.000000, 0.000000, 1.000000, 0.000000, 0.000000)" style="fill: none;" ry="0" fill="none" rx="0" y="0"/></g></g><g id="shape-ddb16823-1b02-8025-8007-6f89a1ec0ecc"><g class="fills" id="fills-ddb16823-1b02-8025-8007-6f89a1ec0ecc"><path d="M21.27978515625,6.4000244140625L11.73974609375,15.93994140625C10.7900390625,16.8900146484375,7.9697265625,17.3299560546875,7.33984375,16.699951171875C6.7099609375,16.0699462890625,7.1396484375,13.25,8.08984375,12.300048828125L17.64013671875,2.75C17.87548828125,2.4930419921875,18.16064453125,2.2864990234375,18.47802734375,2.142822265625C18.79541015625,1.9991455078125,19.13916015625,1.9212646484375,19.4873046875,1.9139404296875C19.8359375,1.9066162109375,20.18212890625,1.969970703125,20.50537109375,2.10009765625C20.8291015625,2.2303466796875,21.12255859375,2.4246826171875,21.36865234375,2.6715087890625C21.61474609375,2.9183349609375,21.80810546875,3.21240234375,21.9375,3.5361328125C22.06689453125,3.8597412109375,22.12939453125,4.206298828125,22.12109375,4.5546875C22.11279296875,4.9031982421875,22.03369140625,5.246337890625,21.88916015625,5.5634765625C21.74462890625,5.880615234375,21.53759765625,6.165283203125,21.27978515625,6.4000244140625L21.27978515625,6.4000244140625Z" fill="none" stroke-linecap="round" stroke-linejoin="round" style="fill: none;"/></g><g fill="none" stroke-linecap="round" stroke-linejoin="round" id="strokes-c8d6dfc6-2d1d-802c-8007-788973312a32-ddb16823-1b02-8025-8007-6f89a1ec0ecc" class="strokes"><g class="inner-stroke-shape"><defs><clipPath id="inner-stroke-render-3-ddb16823-1b02-8025-8007-6f89a1ec0ecc-0"><use href="#stroke-shape-render-3-ddb16823-1b02-8025-8007-6f89a1ec0ecc-0"/></clipPath><path d="M21.27978515625,6.4000244140625L11.73974609375,15.93994140625C10.7900390625,16.8900146484375,7.9697265625,17.3299560546875,7.33984375,16.699951171875C6.7099609375,16.0699462890625,7.1396484375,13.25,8.08984375,12.300048828125L17.64013671875,2.75C17.87548828125,2.4930419921875,18.16064453125,2.2864990234375,18.47802734375,2.142822265625C18.79541015625,1.9991455078125,19.13916015625,1.9212646484375,19.4873046875,1.9139404296875C19.8359375,1.9066162109375,20.18212890625,1.969970703125,20.50537109375,2.10009765625C20.8291015625,2.2303466796875,21.12255859375,2.4246826171875,21.36865234375,2.6715087890625C21.61474609375,2.9183349609375,21.80810546875,3.21240234375,21.9375,3.5361328125C22.06689453125,3.8597412109375,22.12939453125,4.206298828125,22.12109375,4.5546875C22.11279296875,4.9031982421875,22.03369140625,5.246337890625,21.88916015625,5.5634765625C21.74462890625,5.880615234375,21.53759765625,6.165283203125,21.27978515625,6.4000244140625L21.27978515625,6.4000244140625Z" id="stroke-shape-render-3-ddb16823-1b02-8025-8007-6f89a1ec0ecc-0" style="fill: none; stroke-width: 3; stroke: rgb(222, 222, 222); stroke-opacity: 1;"/></defs><use href="#stroke-shape-render-3-ddb16823-1b02-8025-8007-6f89a1ec0ecc-0" clip-path="url('#inner-stroke-render-3-ddb16823-1b02-8025-8007-6f89a1ec0ecc-0')"/></g></g></g><g id="shape-ddb16823-1b02-8025-8007-6f89a1ec41b6"><g class="fills" id="fills-ddb16823-1b02-8025-8007-6f89a1ec41b6"><path d="M11,4L6,4C4.93896484375,4,3.921875,4.42138671875,3.17138671875,5.171630859375C2.42138671875,5.9217529296875,2,6.9390869140625,2,8L2,18C2,19.0609130859375,2.42138671875,20.0782470703125,3.17138671875,20.828369140625C3.921875,21.57861328125,4.93896484375,22,6,22L17,22C19.2099609375,22,20,20.199951171875,20,18L20,13" fill="none" stroke-linecap="round" stroke-linejoin="round" style="fill: none;"/></g><g fill="none" stroke-linecap="round" stroke-linejoin="round" id="strokes-c8d6dfc6-2d1d-802c-8007-78897332137b-ddb16823-1b02-8025-8007-6f89a1ec41b6" class="strokes"><g class="stroke-shape"><path d="M11,4L6,4C4.93896484375,4,3.921875,4.42138671875,3.17138671875,5.171630859375C2.42138671875,5.9217529296875,2,6.9390869140625,2,8L2,18C2,19.0609130859375,2.42138671875,20.0782470703125,3.17138671875,20.828369140625C3.921875,21.57861328125,4.93896484375,22,6,22L17,22C19.2099609375,22,20,20.199951171875,20,18L20,13" style="fill: none; stroke-width: 1.5; stroke: rgb(222, 222, 222); stroke-opacity: 1;"/></g></g></g></g></svg>