<svg width="25" xmlns="http://www.w3.org/2000/svg" height="25" id="screenshot-789c5c10-2cc9-8074-8007-4e7ac73d8b9d" viewBox="0 0 25 25" xmlns:xlink="http://www.w3.org/1999/xlink" fill="none" version="1.1"><g id="shape-789c5c10-2cc9-8074-8007-4e7ac73d8b9d" version="1.0" width="800" height="800" xml:space="preserve" rx="0" ry="0" style="fill: rgb(0, 0, 0);"><g id="shape-789c5c10-2cc9-8074-8007-4e7ac73d8b9e" style="display: none;"><g class="fills" id="fills-789c5c10-2cc9-8074-8007-4e7ac73d8b9e"><rect width="25" height="25" x="0" transform="matrix(1.000000, 0.000000, 0.000000, 1.000000, 0.000000, 0.000000)" style="fill: none;" ry="0" fill="none" rx="0" y="0"/></g></g><g id="shape-789c5c10-2cc9-8074-8007-4e7ac73d8b9f"><g class="fills" id="fills-789c5c10-2cc9-8074-8007-4e7ac73d8b9f"><path d="M12.5009765625,0.9703369140625C12.60986328125,0.9703369140625,12.68212890625,1.16912841796875,12.68212890625,1.16912841796875L16.12158203125,8.49688720703125L24.21875,9.7340087890625L18.35986328125,15.7418212890625L19.7431640625,24.21875L12.5009765625,20.2132568359375L5.2587890625,24.21875L6.64208984375,15.7418212890625L0.783203125,9.7340087890625L8.88037109375,8.49688720703125L12.31689453125,1.1754150390625C12.31689453125,1.1754150390625,12.39208984375,0.9703369140625,12.5009765625,0.9703369140625M12.5009765625,0.002685546875C12.1982421875,0.002685546875,11.9228515625,0.177734375,11.79345703125,0.45196533203125L8.35009765625,7.787109375L0.6650390625,8.9613037109375C0.37548828125,9.0054931640625,0.13525390625,9.20819091796875,0.0419921875,9.4859619140625C-0.05078125,9.7633056640625,0.01904296875,10.06951904296875,0.2236328125,10.279296875L5.80712890625,16.004638671875L4.48779296875,24.0921630859375C4.439453125,24.38751220703125,4.56396484375,24.68475341796875,4.80908203125,24.85662841796875C4.943359375,24.95196533203125,5.10107421875,25,5.2587890625,25C5.388671875,25,5.51904296875,24.9671630859375,5.63671875,24.90234375L12.5009765625,21.1058349609375L19.365234375,24.90234375C19.48291015625,24.9671630859375,19.61328125,25,19.7431640625,25C19.90087890625,25,20.05908203125,24.95196533203125,20.19287109375,24.8570556640625C20.43798828125,24.6851806640625,20.5625,24.38787841796875,20.513671875,24.092529296875L19.1943359375,16.00506591796875L24.77783203125,10.2796630859375C24.982421875,10.0699462890625,25.052734375,9.763671875,24.95947265625,9.486328125C24.86669921875,9.2086181640625,24.6259765625,9.0062255859375,24.33642578125,8.961669921875L16.6513671875,7.7874755859375L13.20849609375,0.45196533203125C13.0791015625,0.177734375,12.8037109375,0.002685546875,12.5009765625,0.002685546875L12.5009765625,0.002685546875Z" style="fill: rgb(222, 222, 222);"/></g></g></g></svg>