<svg width="24" xmlns="http://www.w3.org/2000/svg" height="24" id="screenshot-fcac4843-07bf-8011-8007-2b9de8f411c0" viewBox="0 0 24 24" xmlns:xlink="http://www.w3.org/1999/xlink" fill="none" version="1.1"><g id="shape-fcac4843-07bf-8011-8007-2b9de8f411c0" width="512" height="512" rx="0" ry="0" style="fill: rgb(0, 0, 0);"><g id="shape-fcac4843-07bf-8011-8007-2b9de8f46d8b" style="display: none;"><g class="fills" id="fills-fcac4843-07bf-8011-8007-2b9de8f46d8b"><rect width="24" height="24" x="0" transform="matrix(1.000000, 0.000000, 0.000000, 1.000000, 0.000000, 0.000000)" style="fill: rgb(160, 160, 160); fill-opacity: 1;" ry="0" fill="none" rx="0" y="0"/></g></g><g id="shape-fcac4843-07bf-8011-8007-2b9de8f46d8c"><g class="fills" id="fills-fcac4843-07bf-8011-8007-2b9de8f46d8c"><path d="M23.9539794921875,5.5419921875L15.5360107421875,13.959991455078125C13.5816650390625,15.90936279296875,10.4183349609375,15.90936279296875,8.4639892578125,13.959991455078125L0.0460205078125,5.5419921875C0.031982421875,5.699981689453125,0,5.842987060546875,0,6L0,18C0.0032958984375,20.760040283203125,2.23992919921875,22.996673583984375,5,23L19,23C21.76007080078125,22.996673583984375,23.9967041015625,20.760040283203125,24,18L24,6C24,5.842987060546875,23.968017578125,5.699981689453125,23.9539794921875,5.5419921875Z" style="fill: rgb(160, 160, 160); fill-opacity: 1;"/></g></g><g id="shape-fcac4843-07bf-8011-8007-2b9de8f46d8d"><g class="fills" id="fills-fcac4843-07bf-8011-8007-2b9de8f46d8d"><path d="M14.12200927734375,12.545989990234375L23.2559814453125,3.410980224609375C22.3560791015625,1.918853759765625,20.74249267578125,1.0047607421875,19,1L5,1C3.25750732421875,1.0047607421875,1.6439208984375,1.918853759765625,0.7440185546875,3.410980224609375L9.87799072265625,12.545989990234375C11.05133056640625,13.714630126953125,12.94866943359375,13.714630126953125,14.12200927734375,12.545989990234375Z" style="fill: rgb(160, 160, 160); fill-opacity: 1;"/></g></g></g></svg>