<svg width="25" xmlns="http://www.w3.org/2000/svg" height="25" id="screenshot-789c5c10-2cc9-8074-8007-4e7ac73d8b9a" viewBox="-0 0 25 25" xmlns:xlink="http://www.w3.org/1999/xlink" fill="none" version="1.1"><g id="shape-789c5c10-2cc9-8074-8007-4e7ac73d8b9a" version="1.0" width="800" height="800" xml:space="preserve" rx="0" ry="0" style="fill: rgb(0, 0, 0);"><g id="shape-789c5c10-2cc9-8074-8007-4e7ac73d8b9b" style="display: none;"><g class="fills" id="fills-789c5c10-2cc9-8074-8007-4e7ac73d8b9b"><rect width="25" height="25" x="0" transform="matrix(1.000000, 0.000000, 0.000000, 1.000000, 0.000000, 0.000000)" style="fill: none;" ry="0" fill="none" rx="0" y="0"/></g></g><g id="shape-789c5c10-2cc9-8074-8007-4e7ac73d8b9c"><g class="fills" id="fills-789c5c10-2cc9-8074-8007-4e7ac73d8b9c"><path d="M24.95849609375,9.48321533203125C24.86572265625,9.2054443359375,24.625,9.00311279296875,24.33544921875,8.95855712890625L16.650390625,7.78436279296875L13.207275390625,0.44921875C13.077880859375,0.17498779296875,12.802001953125,0,12.499267578125,0C12.196533203125,0,11.921142578125,0.17498779296875,11.792236328125,0.44921875L8.348876953125,7.78436279296875L0.663330078125,8.958984375C0.374267578125,9.00311279296875,0.134033203125,9.20587158203125,0.040283203125,9.48358154296875C-0.052490234375,9.76092529296875,0.017333984375,10.06719970703125,0.221923828125,10.27691650390625L5.805908203125,16.0023193359375L4.486083984375,24.08984375C4.437744140625,24.3851318359375,4.562255859375,24.68243408203125,4.806884765625,24.85430908203125C4.941650390625,24.94921875,5.098876953125,24.99725341796875,5.257080078125,24.99725341796875C5.386474609375,24.99725341796875,5.516845703125,24.96441650390625,5.635009765625,24.89959716796875L12.499267578125,21.10308837890625L19.36376953125,24.89959716796875C19.4814453125,24.96441650390625,19.61181640625,24.99725341796875,19.74169921875,24.99725341796875C19.89892578125,24.99725341796875,20.05712890625,24.94921875,20.19091796875,24.85430908203125C20.43603515625,24.68243408203125,20.560546875,24.3851318359375,20.51220703125,24.08984375L19.19287109375,16.0023193359375L24.77587890625,10.27691650390625C24.9814453125,10.0667724609375,25.05126953125,9.76055908203125,24.95849609375,9.48321533203125Z" style="fill: rgb(222, 222, 222);"/></g></g></g></svg>