<svg width="24" xmlns="http://www.w3.org/2000/svg" height="24" id="screenshot-2c5c9ba7-1abb-80c4-8007-c246db81b15a" viewBox="0 0 24 24" xmlns:xlink="http://www.w3.org/1999/xlink" fill="none" version="1.1"><g id="shape-2c5c9ba7-1abb-80c4-8007-c246db81b15a" width="800" height="800" rx="0" ry="0" style="fill: rgb(0, 0, 0);"><g id="shape-2c5c9ba7-1abb-80c4-8007-c246db82d2f2" style="display: none;"><g class="fills" id="fills-2c5c9ba7-1abb-80c4-8007-c246db82d2f2"><rect width="24" height="24" x="0" transform="matrix(1.000000, 0.000000, 0.000000, 1.000000, 0.000000, 0.000000)" style="fill: none;" ry="0" fill="none" rx="0" y="0"/></g></g><g id="shape-2c5c9ba7-1abb-80c4-8007-c246db8333eb"><g class="fills" id="fills-2c5c9ba7-1abb-80c4-8007-c246db8333eb"><path d="M7.370849609375,7.99981689453125C8.362060546875,6.4754638671875,9.343505859375,4.9095458984375,9.9560546875,3.376953125C10.2158203125,2.7271728515625,11.01611328125,2.42181396484375,11.57275390625,2.8458251953125C14.94384765625,5.4139404296875,20,10.37811279296875,20,15C20,16.173583984375,19.80078125,17.165496826171875,19.4697265625,17.999786376953125M5.465576171875,10.999786376953125C4.61328125,12.453704833984375,4,13.8131103515625,4,15C4,18.106903076171875,6.24560546875,20.308807373046875,8.081298828125,21.371490478515625C8.501953125,21.614990234375,8.911376953125,21.107086181640625,8.690673828125,20.674102783203125C8.204833984375,19.720611572265625,7.7333984375,18.489288330078125,7.7333984375,17.5C7.7333984375,16.12860107421875,8.7783203125,15.0264892578125,9.524658203125,14.319793701171875C9.716064453125,14.13861083984375,10.01611328125,14.141387939453125,10.181884765625,14.34619140625C10.489990234375,14.72650146484375,10.798095703125,15.2078857421875,11.106201171875,15.597503662109375C11.287109375,15.826202392578125,11.6240234375,15.805999755859375,11.78271484375,15.5614013671875C12.768798828125,14.04180908203125,12.99755859375,12.1029052734375,13.05078125,10.6536865234375C13.066650390625,10.21630859375,13.57861328125,10.00140380859375,13.8720703125,10.32611083984375C15.156005859375,11.746490478515625,16.800048828125,14.049407958984375,16.800048828125,16C16.800048828125,17.815887451171875,15.7822265625,19.7462158203125,14.90185546875,21.011505126953125C14.643798828125,21.382293701171875,14.927490234375,21.88531494140625,15.35888671875,21.751007080078125C15.873291015625,21.590911865234375,16.426513671875,21.3507080078125,16.96533203125,21.011505126953125" fill="none" stroke-linecap="round" style="fill: none;"/></g><g fill="none" stroke-linecap="round" id="strokes-da4bd3bd-eca9-804b-8007-c2470072c3db-2c5c9ba7-1abb-80c4-8007-c246db8333eb" class="strokes"><g class="stroke-shape"><path d="M7.370849609375,7.99981689453125C8.362060546875,6.4754638671875,9.343505859375,4.9095458984375,9.9560546875,3.376953125C10.2158203125,2.7271728515625,11.01611328125,2.42181396484375,11.57275390625,2.8458251953125C14.94384765625,5.4139404296875,20,10.37811279296875,20,15C20,16.173583984375,19.80078125,17.165496826171875,19.4697265625,17.999786376953125M5.465576171875,10.999786376953125C4.61328125,12.453704833984375,4,13.8131103515625,4,15C4,18.106903076171875,6.24560546875,20.308807373046875,8.081298828125,21.371490478515625C8.501953125,21.614990234375,8.911376953125,21.107086181640625,8.690673828125,20.674102783203125C8.204833984375,19.720611572265625,7.7333984375,18.489288330078125,7.7333984375,17.5C7.7333984375,16.12860107421875,8.7783203125,15.0264892578125,9.524658203125,14.319793701171875C9.716064453125,14.13861083984375,10.01611328125,14.141387939453125,10.181884765625,14.34619140625C10.489990234375,14.72650146484375,10.798095703125,15.2078857421875,11.106201171875,15.597503662109375C11.287109375,15.826202392578125,11.6240234375,15.805999755859375,11.78271484375,15.5614013671875C12.768798828125,14.04180908203125,12.99755859375,12.1029052734375,13.05078125,10.6536865234375C13.066650390625,10.21630859375,13.57861328125,10.00140380859375,13.8720703125,10.32611083984375C15.156005859375,11.746490478515625,16.800048828125,14.049407958984375,16.800048828125,16C16.800048828125,17.815887451171875,15.7822265625,19.7462158203125,14.90185546875,21.011505126953125C14.643798828125,21.382293701171875,14.927490234375,21.88531494140625,15.35888671875,21.751007080078125C15.873291015625,21.590911865234375,16.426513671875,21.3507080078125,16.96533203125,21.011505126953125" style="fill: none; stroke-width: 1.5; stroke: rgb(211, 129, 47); stroke-opacity: 1;"/></g></g></g></g></svg>