<svg width="24" xmlns="http://www.w3.org/2000/svg" height="24" id="screenshot-fcac4843-07bf-8011-8007-2b9de53d3c79" viewBox="0 0 24 24" xmlns:xlink="http://www.w3.org/1999/xlink" fill="none" version="1.1"><g id="shape-fcac4843-07bf-8011-8007-2b9de53d3c79" height="512" xml:space="preserve" width="512" rx="0" ry="0" style="fill: rgb(0, 0, 0);"><g id="shape-fcac4843-07bf-8011-8007-2b9de53d9254" style="display: none;"><g class="fills" id="fills-fcac4843-07bf-8011-8007-2b9de53d9254"><rect width="24" height="24" x="0" transform="matrix(1.000000, 0.000000, 0.000000, 1.000000, 0.000000, 0.000000)" style="fill: rgb(160, 160, 160); fill-opacity: 1;" ry="0" fill="none" rx="0" y="0"/></g></g><g id="shape-fcac4843-07bf-8011-8007-2b9de53de7ae"><g class="fills" id="fills-fcac4843-07bf-8011-8007-2b9de53de7ae"><path d="M19,8.42401123046875L19,7C19,3.134033203125,15.86602783203125,-2.2737367544323206e-13,12,-2.2737367544323206e-13C8.13397216796875,-2.2737367544323206e-13,5,3.134033203125,5,7L5,8.42401123046875C3.1800537109375,9.21832275390625,2.002685546875,11.0142822265625,2,13L2,19C2.0032958984375,21.760009765625,4.23992919921875,23.9967041015625,7,24L17,24C19.760009765625,23.9967041015625,21.99664306640625,21.760009765625,22,19L22,13C21.9974365234375,11.0142822265625,20.8199462890625,9.21832275390625,19,8.42401123046875ZM13,17C13,17.55230712890625,12.55230712890625,18,12,18C11.44775390625,18,11,17.55230712890625,11,17L11,15C11,14.44769287109375,11.44775390625,14,12,14C12.55230712890625,14,13,14.44769287109375,13,15L13,17ZM17,8L7,8L7,7C7,4.2386474609375,9.23858642578125,2,12,2C14.761474609375,2,17,4.23858642578125,17,7L17,8Z" style="fill: rgb(160, 160, 160); fill-opacity: 1;"/></g></g></g></svg>