<svg width="24" xmlns="http://www.w3.org/2000/svg" height="24" id="screenshot-faab7499-0869-8075-8007-53ae8a409f5e" viewBox="0 0 24 24" xmlns:xlink="http://www.w3.org/1999/xlink" fill="none" version="1.1"><g id="shape-faab7499-0869-8075-8007-53ae8a409f5e" width="800" height="800" rx="0" ry="0" style="fill: rgb(0, 0, 0);"><g id="shape-faab7499-0869-8075-8007-53ae8a41998d" style="display: none;"><g class="fills" id="fills-faab7499-0869-8075-8007-53ae8a41998d"><rect width="24" height="24" x="0" transform="matrix(1.000000, 0.000000, 0.000000, 1.000000, 0.000000, 0.000000)" style="fill: none;" ry="0" fill="none" rx="0" y="0"/></g></g><g id="shape-faab7499-0869-8075-8007-53ae8a41d885"><g class="fills" id="fills-faab7499-0869-8075-8007-53ae8a41d885"><path d="M15,3L7,3C5.8955078125,3,5,3.895416259765625,5,5L5,19C5,20.104583740234375,5.8955078125,21,7,21L15,21M19,12L15,8M19,12L15,16M19,12L9,12" fill="none" stroke-linecap="round" stroke-linejoin="round" style="fill: none;"/></g><g fill="none" stroke-linecap="round" stroke-linejoin="round" id="strokes-89b0052b-853d-802d-8007-53aeb0f01a07-faab7499-0869-8075-8007-53ae8a41d885" class="strokes"><g class="stroke-shape"><path d="M15,3L7,3C5.8955078125,3,5,3.895416259765625,5,5L5,19C5,20.104583740234375,5.8955078125,21,7,21L15,21M19,12L15,8M19,12L15,16M19,12L9,12" style="fill: none; stroke-width: 2; stroke: rgb(222, 222, 222); stroke-opacity: 1;"/></g></g></g></g></svg>