<svg width="82.184" xmlns="http://www.w3.org/2000/svg" height="73" id="screenshot-40687bda-3965-8094-8007-30dfb00f66c0" viewBox="0 0 82.184 73" xmlns:xlink="http://www.w3.org/1999/xlink" fill="none" version="1.1"><g id="shape-40687bda-3965-8094-8007-30dfb00f66c0" rx="0" ry="0"><g id="shape-40687bda-3965-8094-8007-30dc0f3d71ac"><g class="fills" id="fills-40687bda-3965-8094-8007-30dc0f3d71ac"><path d="M36.5,0C16.3551025390625,0,0,16.3551025390625,0,36.5C0,56.6448974609375,16.3551025390625,73,36.5,73C46.39495849609375,73,55.3756103515625,69.05404663085938,61.9527587890625,62.651214599609375L50.785888671875,51.48431396484375C47.197021484375,54.90135192871094,42.3416748046875,57,37,57C25.961669921875,57,17,48.038299560546875,17,37C17,25.961700439453125,25.961669921875,17,37,17C42.6966552734375,17,47.8402099609375,19.3868408203125,51.48431396484375,23.214141845703125L63.13970947265625,11.55877685546875C56.477783203125,4.44671630859375,47.00408935546875,0,36.5,0" style="fill: rgb(222, 222, 222); fill-opacity: 1;"/></g></g><g id="shape-40687bda-3965-8094-8007-30dc1ca41556"><g class="fills" id="fills-40687bda-3965-8094-8007-30dc1ca41556"><path d="M38,37.69847106933594L47.04718017578125,46.745635986328125C44.5020751953125,49.36888122558594,40.94000244140625,51,37,51C29.273193359375,51,23,44.726806640625,23,37C23,29.273193359375,29.273193359375,23,37,23C41.29541015625,23,45.1416015625,24.938629150390625,47.7105712890625,27.9879150390625L38,37.69847106933594" style="fill: rgb(231, 71, 81); fill-opacity: 1;"/></g></g><g id="shape-40687bda-3965-8094-8007-30dafa40b021"><g class="fills" id="fills-40687bda-3965-8094-8007-30dafa40b021"><path d="M44,37.79901123046875L63.7989501953125,18.000015258789062L82.18377685546875,36.384796142578125L62.384765625,56.18379211425781L44,37.79901123046875" style="fill: rgb(222, 222, 222); fill-opacity: 1;"/></g></g></g></svg>