<svg width="12" xmlns="http://www.w3.org/2000/svg" height="12" id="screenshot-ac0c2346-0ce1-80e6-8007-6431bcbb3c59" viewBox="0 0 12 12" xmlns:xlink="http://www.w3.org/1999/xlink" fill="none" version="1.1"><g id="shape-ac0c2346-0ce1-80e6-8007-6431bcbb3c59" width="800" height="800" rx="0" ry="0" style="fill: rgb(0, 0, 0);"><g id="shape-ac0c2346-0ce1-80e6-8007-6431bcbb9dd8" style="display: none;"><g class="fills" id="fills-ac0c2346-0ce1-80e6-8007-6431bcbb9dd8"><rect width="12" height="12" x="0" transform="matrix(1.000000, 0.000000, 0.000000, 1.000000, 0.000000, 0.000000)" style="fill: rgb(222, 222, 222); fill-opacity: 1;" ry="0" fill="none" rx="0" y="0"/></g></g><g id="shape-ac0c2346-0ce1-80e6-8007-6431bcbbeea3"><g class="fills" id="fills-ac0c2346-0ce1-80e6-8007-6431bcbbeea3"><path d="M2.8162841796875,1.0546875C2.5552978515625,1.0546875,2.34375,1.2662353515625,2.34375,1.52716064453125L2.34375,10.47283935546875C2.34375,10.7337646484375,2.5552978515625,10.9453125,2.8162841796875,10.9453125L4.3555908203125,10.9453125C4.6165771484375,10.9453125,4.828125,10.7337646484375,4.828125,10.47283935546875L4.828125,1.52716064453125C4.828125,1.2662353515625,4.6165771484375,1.0546875,4.3555908203125,1.0546875L2.8162841796875,1.0546875ZM7.6444091796875,1.0546875C7.3834228515625,1.0546875,7.171875,1.2662353515625,7.171875,1.52716064453125L7.171875,10.47283935546875C7.171875,10.7337646484375,7.3834228515625,10.9453125,7.6444091796875,10.9453125L9.1837158203125,10.9453125C9.4447021484375,10.9453125,9.65625,10.7337646484375,9.65625,10.47283935546875L9.65625,1.52716064453125C9.65625,1.2662353515625,9.4447021484375,1.0546875,9.1837158203125,1.0546875L7.6444091796875,1.0546875Z" style="fill: rgb(222, 222, 222); fill-opacity: 1;"/></g></g></g></svg>