<svg width="20" xmlns="http://www.w3.org/2000/svg" height="20" id="screenshot-36af3d0b-6258-80d4-8007-561509bb31aa" viewBox="0 0 20 20" xmlns:xlink="http://www.w3.org/1999/xlink" fill="none" version="1.1"><g id="shape-36af3d0b-6258-80d4-8007-561509bb31aa" height="800" width="800" xml:space="preserve" rx="0" ry="0" style="fill: rgb(0, 0, 0);"><g id="shape-36af3d0b-6258-80d4-8007-561509bb31b6" style="display: none;"><g class="fills" id="fills-36af3d0b-6258-80d4-8007-561509bb31b6"><rect width="20" height="20" x="0" transform="matrix(1.000000, 0.000000, 0.000000, 1.000000, 0.000000, 0.000000)" style="fill: none;" ry="0" fill="none" rx="0" y="0"/></g></g><g id="shape-36af3d0b-6258-80d4-8007-561509bb31b7"><g class="fills" id="fills-36af3d0b-6258-80d4-8007-561509bb31b7"><path d="M2.74755859375,19.3975830078125C2.74755859375,19.395751953125,2.74755859375,19.3939208984375,2.74755859375,19.3922119140625L2.74755859375,0.6041259765625C2.74755859375,0.3629150390625,2.9384765625,0.144775390625,3.232421875,0.050048828125C3.525390625,-0.0465087890625,3.865234375,0.001708984375,4.09521484375,0.16796875L17.01806640625,9.56201171875C17.33056640625,9.7890625,17.33056640625,10.20556640625,17.01806640625,10.4326171875L4.16015625,19.780029296875C4.015625,19.912353515625,3.79345703125,20,3.544921875,20C3.1044921875,20,2.74755859375,19.72998046875,2.74755859375,19.3975830078125Z" style="fill: rgb(222, 222, 222);"/></g></g></g></svg>