<svg width="36" xmlns="http://www.w3.org/2000/svg" height="36" id="screenshot-3502746a-f8ba-8073-8007-4d2b0fe552b6" viewBox="0 0 36 36" xmlns:xlink="http://www.w3.org/1999/xlink" fill="none" version="1.1"><g id="shape-3502746a-f8ba-8073-8007-4d2b0fe552b6" rx="0" ry="0"><g id="shape-3502746a-f8ba-8073-8007-4d29b9b6a694"><g class="fills" id="fills-3502746a-f8ba-8073-8007-4d29b9b6a694"><path d="M18,0C27.9345703125,0,36,8.065521240234375,36,18C36,27.934478759765625,27.9345703125,36,18,36C8.0654296875,36,0,27.934478759765625,0,18C0,8.065521240234375,8.0654296875,0,18,0" style="fill: rgb(222, 222, 222); fill-opacity: 1;"/></g></g><g id="shape-3502746a-f8ba-8073-8007-4d2a956c8c69"><g class="fills" id="fills-3502746a-f8ba-8073-8007-4d2a956c8c69"><path d="M18,2C22.4150390625,2,26,5.584686279296875,26,10C26,14.415313720703125,22.4150390625,18,18,18C13.5849609375,18,10,14.415313720703125,10,10C10,5.584686279296875,13.5849609375,2,18,2" style="fill: rgb(160, 160, 160); fill-opacity: 1;"/></g></g><g id="shape-3502746a-f8ba-8073-8007-4d2adc215197"><g class="fills" id="fills-3502746a-f8ba-8073-8007-4d2adc215197"><path d="M30.56591796875,30.648956298828125C27.3017578125,33.95204162597656,22.7705078125,36,17.7646484375,36C12.77734375,36,8.26123046875,33.96745300292969,5,30.686279296875C6.078125,24.6005859375,11.38818359375,20,17.7646484375,20C24.154296875,20,29.4736328125,24.620285034179688,30.56103515625,30.69952392578125" style="fill: rgb(160, 160, 160); fill-opacity: 1;"/></g></g></g></svg>