<svg width="24" xmlns="http://www.w3.org/2000/svg" height="24" id="screenshot-ddb16823-1b02-8025-8007-6f774d9647bb" viewBox="0 0 24 24" xmlns:xlink="http://www.w3.org/1999/xlink" fill="none" version="1.1"><g id="shape-ddb16823-1b02-8025-8007-6f774d9647bb" width="800" height="800" rx="0" ry="0" style="fill: rgb(0, 0, 0);"><g id="shape-ddb16823-1b02-8025-8007-6f774d96bc98" style="display: none;"><g class="fills" id="fills-ddb16823-1b02-8025-8007-6f774d96bc98"><rect width="24" height="24" x="0" transform="matrix(1.000000, 0.000000, 0.000000, 1.000000, 0.000000, 0.000000)" style="fill: none;" ry="0" fill="none" rx="0" y="0"/></g></g><g id="shape-ddb16823-1b02-8025-8007-6f774d96bc99"><g class="fills" id="fills-ddb16823-1b02-8025-8007-6f774d96bc99"><path d="M15.79541015625,15.81109619140625L21,21M18,10.5C18,14.64208984375,14.64208984375,18,10.5,18C6.35791015625,18,3,14.64208984375,3,10.5C3,6.35784912109375,6.35791015625,3,10.5,3C14.64208984375,3,18,6.35784912109375,18,10.5Z" fill="none" stroke-linecap="round" stroke-linejoin="round" style="fill: none;"/></g><g fill="none" stroke-linecap="round" stroke-linejoin="round" id="strokes-465f67e9-4157-8071-8007-a9e37ac884e7-ddb16823-1b02-8025-8007-6f774d96bc99" class="strokes"><g class="stroke-shape"><path d="M15.79541015625,15.81109619140625L21,21M18,10.5C18,14.64208984375,14.64208984375,18,10.5,18C6.35791015625,18,3,14.64208984375,3,10.5C3,6.35784912109375,6.35791015625,3,10.5,3C14.64208984375,3,18,6.35784912109375,18,10.5Z" style="fill: none; stroke-width: 2; stroke: rgb(160, 160, 160); stroke-opacity: 1;"/></g></g></g></g></svg>