<svg width="15" xmlns="http://www.w3.org/2000/svg" height="15" id="screenshot-41e868e8-d67f-804d-8007-afce91b384ae" viewBox="0 0 15 15" xmlns:xlink="http://www.w3.org/1999/xlink" fill="none" version="1.1"><g id="shape-41e868e8-d67f-804d-8007-afce91b384ae" width="800" height="800" rx="0" ry="0" style="fill: rgb(0, 0, 0);"><g id="shape-41e868e8-d67f-804d-8007-afce91b44deb" style="display: none;"><g class="fills" id="fills-41e868e8-d67f-804d-8007-afce91b44deb"><rect width="15" height="15" x="0" transform="matrix(1.000000, 0.000000, 0.000000, 1.000000, 0.000000, 0.000000)" style="fill: none;" ry="0" fill="none" rx="0" y="0"/></g></g><g id="shape-41e868e8-d67f-804d-8007-afce91b4f493"><g class="fills" id="fills-41e868e8-d67f-804d-8007-afce91b4f493"><path d="M0.8770751953125,7.499725341796875C0.8770751953125,3.842041015625,3.84222412109375,0.87689208984375,7.49993896484375,0.87689208984375C11.1575927734375,0.87689208984375,14.1226806640625,3.842041015625,14.1226806640625,7.499725341796875C14.1226806640625,11.15740966796875,11.1575927734375,14.122589111328125,7.49993896484375,14.122589111328125C3.84222412109375,14.122589111328125,0.8770751953125,11.15740966796875,0.8770751953125,7.499725341796875ZM7.49993896484375,1.826904296875C4.36688232421875,1.826904296875,1.82708740234375,4.36669921875,1.82708740234375,7.499725341796875C1.82708740234375,10.6326904296875,4.36688232421875,13.172607421875,7.49993896484375,13.172607421875C10.63287353515625,13.172607421875,13.1727294921875,10.6326904296875,13.1727294921875,7.499725341796875C13.1727294921875,4.36669921875,10.63287353515625,1.826904296875,7.49993896484375,1.826904296875ZM8.24993896484375,10.5C8.24993896484375,10.9141845703125,7.91412353515625,11.25,7.49993896484375,11.25C7.085693359375,11.25,6.74993896484375,10.9141845703125,6.74993896484375,10.5C6.74993896484375,10.0858154296875,7.085693359375,9.75,7.49993896484375,9.75C7.91412353515625,9.75,8.24993896484375,10.0858154296875,8.24993896484375,10.5ZM6.050048828125,6.25C6.050048828125,5.572113037109375,6.6351318359375,4.92498779296875,7.5,4.92498779296875C8.364990234375,4.92498779296875,8.95001220703125,5.572113037109375,8.95001220703125,6.25C8.95001220703125,6.741180419921875,8.67999267578125,6.99212646484375,8.2144775390625,7.274932861328125C8.16253662109375,7.3065185546875,8.10260009765625,7.34130859375,8.0384521484375,7.3785400390625L8.03839111328125,7.378570556640625C7.855224609375,7.4849853515625,7.63787841796875,7.611175537109375,7.4744873046875,7.738494873046875C7.23211669921875,7.92730712890625,6.95001220703125,8.23199462890625,6.95001220703125,8.70001220703125C6.95001220703125,9.003753662109375,7.1962890625,9.25,7.50006103515625,9.25C7.80242919921875,9.25,8.04779052734375,9.006011962890625,8.050048828125,8.70416259765625L8.050537109375,8.70330810546875C8.05926513671875,8.689605712890625,8.0849609375,8.6573486328125,8.15057373046875,8.606201171875C8.2520751953125,8.527130126953125,8.36505126953125,8.461639404296875,8.51568603515625,8.374359130859375L8.51568603515625,8.37432861328125C8.59423828125,8.328826904296875,8.6829833984375,8.27740478515625,8.78558349609375,8.215057373046875C9.320068359375,7.890380859375,10.04998779296875,7.35382080078125,10.04998779296875,6.25C10.04998779296875,4.927886962890625,8.93511962890625,3.82501220703125,7.5,3.82501220703125C6.06494140625,3.82501220703125,4.95001220703125,4.927886962890625,4.95001220703125,6.25C4.95001220703125,6.55377197265625,5.1962890625,6.79998779296875,5.5,6.79998779296875C5.80377197265625,6.79998779296875,6.050048828125,6.55377197265625,6.050048828125,6.25Z" fill-rule="evenodd" clip-rule="evenodd" style="fill: rgb(222, 222, 222);"/></g></g></g></svg>