<svg width="12" xmlns="http://www.w3.org/2000/svg" height="12" id="screenshot-84b4341c-6a51-804c-8007-8943a49ab8bc" viewBox="0 0 12 12" xmlns:xlink="http://www.w3.org/1999/xlink" fill="none" version="1.1"><g id="shape-84b4341c-6a51-804c-8007-8943a49ab8bc" width="800" height="800" rx="0" ry="0" style="fill: rgb(0, 0, 0);"><g id="shape-84b4341c-6a51-804c-8007-8943a49b13c8" style="display: none;"><g class="fills" id="fills-84b4341c-6a51-804c-8007-8943a49b13c8"><rect width="12" height="12" x="0" transform="matrix(1.000000, 0.000000, 0.000000, 1.000000, 0.000000, 0.000000)" style="fill: none;" ry="0" fill="none" rx="0" y="0"/></g></g><g id="shape-84b4341c-6a51-804c-8007-8943a49b7612"><g class="fills" id="fills-84b4341c-6a51-804c-8007-8943a49b7612"><path d="M6,8.4949951171875L6,8.5M6,3.5L6,7M10.5,6C10.5,8.48529052734375,8.48529052734375,10.5,6,10.5C3.51470947265625,10.5,1.5,8.48529052734375,1.5,6C1.5,3.51470947265625,3.51470947265625,1.5,6,1.5C8.48529052734375,1.5,10.5,3.51470947265625,10.5,6Z" fill="none" stroke-linecap="round" stroke-linejoin="round" style="fill: none;"/></g><g fill="none" stroke-linecap="round" stroke-linejoin="round" id="strokes-e16f7cc7-ec62-80ef-8007-8943c1f3617a-84b4341c-6a51-804c-8007-8943a49b7612" class="strokes"><g class="stroke-shape"><path d="M6,8.4949951171875L6,8.5M6,3.5L6,7M10.5,6C10.5,8.48529052734375,8.48529052734375,10.5,6,10.5C3.51470947265625,10.5,1.5,8.48529052734375,1.5,6C1.5,3.51470947265625,3.51470947265625,1.5,6,1.5C8.48529052734375,1.5,10.5,3.51470947265625,10.5,6Z" style="fill: none; stroke-width: 1.5; stroke: rgb(222, 222, 222); stroke-opacity: 1;"/></g></g></g></g></svg>